<?xml version="1.0" encoding="utf-8"?>
<!-- Svg Vector Icons : http://www.onlinewebfonts.com/icon -->
<!DOCTYPE svg PUBLIC "-//W3C//DTD SVG 1.1//EN" "http://www.w3.org/Graphics/SVG/1.1/DTD/svg11.dtd">
<svg version="1.1" xmlns="http://www.w3.org/2000/svg" xmlns:xlink="http://www.w3.org/1999/xlink" x="0px" y="0px" viewBox="0 0 1000 1000" enable-background="new 0 0 1000 1000" xml:space="preserve">
<metadata> Svg Vector Icons : http://www.onlinewebfonts.com/icon </metadata>
<g><g><g><polygon points="508.8,419.9 10,419.9 10,473.2 52.6,473.2 52.6,958.5 405.3,958.5 405.3,473.2 508.8,473.2 "/><path d="M766.8,662.2c0.1,0,0.3,0.1,0.4,0.1c65.1,1.9,102.2-17.5,107.9-69l26.4-237.3c4.9-44.2-30.3-77.9-65.6-90.9l-0.3-0.1c0,0-12.6-4.1-24-5.7c-12-1.6-23.8,0.6-23.8,0.6c-27.5,3.2-54.7,22.7-54.7,22.7c-50.6,36-129,43.8-233.3,23.1c-26.2-5.3-51.7,11.8-56.9,38.1c-5.2,26.2,11.8,51.7,38.1,56.9c43.7,8.7,84.4,13,121.9,13c34.1,0,64.7-3.8,93.5-11l-0.2,3.3l-16.8,151.2c-88.1,3.2-143.6,21.3-165.3,54.3c-29.4,44.8-77.2,225.4-91.2,280.8c-7.2,28.6,10.2,57.7,38.8,64.9c4.4,1.1,8.7,1.6,13.1,1.6c23.9,0,45.7-16.2,51.8-40.4c24.6-97.6,58.5-198.7,74-230.8C613.3,659.9,698.3,658.4,766.8,662.2z"/><circle cx="798.8" cy="145.1" r="108.2"/><path d="M975.6,557.2L990,370.9c0-1.1-0.4-2.1-1.1-2.8c-0.7-0.8-1.7-1.2-2.8-1.2H927c-2.1,0-3.8,1.7-3.9,3.8l-13.4,186.4C908,614.6,891,685.3,794.5,685.3c-1.4,0-106.8-0.2-106.8-0.2c0,0,0,0,0,0c-1,0-2,0.4-2.8,1.1c-0.7,0.7-1.1,1.7-1.1,2.8v57.6c0,2.2,1.7,3.9,3.9,3.9l96.9,0v132.4h-30.4c-39.8,0-73.5,35-73.5,76.4c0,2.2,1.7,3.9,3.9,3.9H723c2.2,0,3.9-1.7,3.9-3.9c0-15.2,12.5-28.1,27.3-28.1h126.2c14.8,0,27.3,12.9,27.3,28.1c0,2.2,1.7,3.9,3.9,3.9H950c2.2,0,3.9-1.7,3.9-3.9c0-41.4-33.7-76.4-73.5-76.4H850V743.3C945.1,740.8,967.2,646.4,975.6,557.2z"/><path d="M415.5,363H232.8l-61.8-226.6c-0.4-1.6-2.1-2.5-3.7-2.1l-33,9c-0.8,0.2-1.4,0.7-1.8,1.4c-0.4,0.7-0.5,1.5-0.3,2.3l69.3,254c0.4,1.3,1.5,2.2,2.9,2.2h211.1c1.7,0,3-1.3,3-3V366C418.5,364.3,417.2,363,415.5,363z"/></g></g><g></g><g></g><g></g><g></g><g></g><g></g><g></g><g></g><g></g><g></g><g></g><g></g><g></g><g></g><g></g></g>
</svg>